#!OML:ASF E:\Style4\Style4.ASF
:FULLY-SPECIFIED
:DEGREES
3296
root -0.405642 17.57 -1.74192 4.63931 1.01028 3.68717
lowerback 15.6545 1.19571 0.452356
upperback 8.07066 1.67868 2.43728
thorax -0.280502 0.804804 2.03538
lowerneck 3.95692 -4.80794 -4.71948
upperneck -1.09063 -6.60908 1.13956
head -0.800384 -3.29385 1.25127
rclavicle -3.49861e-014 -9.54166e-015
rhumerus 45.8891 8.45136 -54.7789
rradius 54.1019
rwrist 4.29342
rhand 31.9971 3.81944
rfingers 7.12502
rthumb 55.4929 -13.9566
lclavicle -3.49861e-014 -9.54166e-015
lhumerus 68.7835 10.4773 32.1426
lradius 61.6282
lwrist 7.67845
lhand 23.7695 32.3364
lfingers 7.12502
lthumb 48.0291 54.5357
rfemur -26.9537 -5.45125 16.9398
rtibia 41.778
rfoot -17.6803 -16.1583
rtoes -11.9207
lfemur -24.9166 -0.157162 -20.3469
ltibia 37.0002
lfoot -15.52 7.52504
ltoes -17.6853
3297
root -0.398386 17.5447 -1.75329 4.47485 0.813877 3.45554
lowerback 15.8605 1.0401 0.228541
upperback 8.13487 1.44335 2.32296
thorax -0.315021 0.682474 2.07664
lowerneck 3.81154 -4.53733 -4.59633
upperneck -1.04008 -6.22853 1.49785
head -0.764634 -3.1099 1.33315
rclavicle -1.11319e-014 -7.95139e-015
rhumerus 45.886 8.78305 -55.065
rradius 54.281
rwrist 4.18959
rhand 31.9377 3.85201
rfingers 7.12502
rthumb 55.4401 -13.9635
lclavicle -1.11319e-014 -7.95139e-015
lhumerus 69.1458 8.94225 33.0142
lradius 61.9895
lwrist 7.15311
lhand 24.0222 32.2888
lfingers 7.12502
lthumb 48.262 54.3784
rfemur -27.0639 -5.44307 17.1679
rtibia 42.137
rfoot -17.7915 -15.9525
rtoes -11.799
lfemur -25.1135 0.104111 -20.1505
ltibia 37.6415
lfoot -15.9127 7.53593
ltoes -17.8346
3298
root -0.390188 17.5232 -1.76365 4.33199 0.567065 3.33234
lowerback 16.1237 0.922802 -0.143119
upperback 8.10628 1.2389 2.20758
thorax -0.480747 0.572367 2.19485
lowerneck 3.72664 -4.24365 -4.56753
upperneck -0.797136 -5.82314 1.93529
head -0.676122 -2.9155 1.45455
rclavicle -4.77083e-015 2.38542e-015
rhumerus 45.7725 9.20375 -55.2929
rradius 54.4805
rwrist 4.0804
rhand 32.042 3.77662
rfingers 7.12502
rthumb 55.5328 -13.9695
lclavicle -4.77083e-015 2.38542e-015
lhumerus 69.0751 7.32592 33.6863
lradius 62.5342
lwrist 6.78168
lhand 24.4844 32.4964
lfingers 7.12502
lthumb 48.6874 54.3821
rfemur -27.1848 -5.37131 17.2676
rtibia 42.4543
rfoot -17.9304 -15.7171
rtoes -11.3909
lfemur -25.2502 0.286745 -20.0545
ltibia 38.1509
lfoot -16.2994 7.60141
ltoes -17.8452
3299
root -0.381044 17.5063 -1.77438 4.2656 0.335491 3.14876
lowerback 16.3394 0.793792 -0.401368
upperback 8.05886 1.03287 2.10334
thorax -0.637765 0.464995 2.26285
lowerneck 3.64625 -3.95797 -4.61451
upperneck -0.582362 -5.43374 2.416
head -0.595409 -2.72816 1.60528
rclavicle 2.38542e-015 7.15625e-015
rhumerus 45.667 9.61286 -55.5051
rradius 54.6672
rwrist 4.01125
rhand 32.1713 3.73352
rfingers 7.12502
rthumb 55.6477 -13.926
lclavicle 2.38542e-015 7.15625e-015
lhumerus 68.8159 5.66674 34.1642
lradius 63.1537
lwrist 6.55142
lhand 25.1086 32.759
lfingers 7.12502
lthumb 49.2609 54.3614
rfemur -27.3424 -5.30805 17.4488
rtibia 42.6955
rfoot -17.9877 -15.5576
rtoes -11.1874
lfemur -25.4398 0.389475 -19.8806
ltibia 38.5838
lfoot -16.5031 7.69555
ltoes -17.9626
3300
root -0.370394 17.4926 -1.78542 4.20546 0.0528367 2.92236
lowerback 16.5243 0.692119 -0.509821
upperback 8.06795 0.88023 1.95737
thorax -0.717467 0.388428 2.19502
lowerneck 3.48329 -3.73085 -4.65095
upperneck -0.410216 -5.12007 2.91822
head -0.512704 -2.57734 1.76219
rclavicle -1.43125e-014 -1.98785e-014
rhumerus 45.5321 9.9056 -55.7392
rradius 54.9326
rwrist 3.89849
rhand 32.2606 3.59757
rfingers 7.12502
rthumb 55.727 -14.0018
lclavicle -1.43125e-014 -1.98785e-014
lhumerus 68.5848 4.01096 34.6079
lradius 63.9527
lwrist 6.45196
lhand 26.0327 32.9758
lfingers 7.12502
lthumb 50.1075 54.1419
rfemur -27.4872 -5.26346 17.676
rtibia 42.8748
rfoot -17.9382 -15.3641
rtoes -11.1563
lfemur -25.581 0.521832 -19.6621
ltibia 38.948
lfoot -16.756 7.76615
ltoes -17.7393
3301
root -0.358842 17.4806 -1.79649 4.15934 -0.315463 2.724
lowerback 16.7178 0.631238 -0.663932
upperback 8.07403 0.773741 1.83062
thorax -0.80747 0.333296 2.16602
lowerneck 3.23692 -3.45249 -4.83001
upperneck -0.123476 -4.74279 3.49211
head -0.37944 -2.39409 1.96532
rclavicle 0 -3.18055e-015
rhumerus 45.5436 10.191 -55.9042
rradius 55.0521
rwrist 3.82789
rhand 32.2887 3.62277
rfingers 7.12502
rthumb 55.7519 -13.9576
lclavicle 0 -3.18055e-015
lhumerus 68.1964 2.34376 35.0196
lradius 64.8006
lwrist 6.51771
lhand 26.8559 33.2568
lfingers 7.12502
lthumb 50.8594 54.0163
rfemur -27.6264 -5.1394 17.8693
rtibia 43.0026
rfoot -17.8845 -15.1552
rtoes -11.3477
lfemur -25.677 0.723586 -19.4781
ltibia 39.2486
lfoot -17.0244 7.87451
ltoes -17.7292
3302
root -0.346736 17.4712 -1.80601 4.13138 -0.668826 2.59052
lowerback 16.9042 0.556333 -0.840734
upperback 8.14206 0.644197 1.70441
thorax -0.826708 0.265263 2.15525
lowerneck 2.70224 -3.26124 -4.95538
upperneck 0.187343 -4.47147 3.8502
head -0.19256 -2.25847 2.08564
rclavicle 9.93923e-015 1.59028e-015
rhumerus 45.6924 10.459 -56.0443
rradius 55.1777
rwrist 3.7384
rhand 32.3959 3.57667
rfingers 7.12502
rthumb 55.8471 -13.931
lclavicle 9.93923e-015 1.59028e-015
lhumerus 67.9496 0.757153 35.5783
lradius 65.3178
lwrist 6.70589
lhand 27.873 33.4298
lfingers 7.12502
lthumb 51.7849 53.6624
rfemur -27.7382 -5.01404 17.9907
rtibia 43.0861
rfoot -17.8156 -15.0106
rtoes -11.8307
lfemur -25.7415 0.898478 -19.3682
ltibia 39.4966
lfoot -17.1607 7.96582
ltoes -17.6432
3303
root -0.332484 17.4674 -1.81697 4.18476 -0.981892 2.54912
lowerback 16.9908 0.523825 -1.01051
upperback 8.13009 0.569453 1.49064
thorax -0.88073 0.227534 2.03903
lowerneck 2.62344 -3.11012 -4.66717
upperneck 0.241936 -4.25868 3.99781
head -0.174947 -2.15247 2.07915
rclavicle -6.75868e-015 -2.46493e-014
rhumerus 45.4755 10.6349 -56.2828
rradius 55.4392
rwrist 3.62687
rhand 32.6243 3.47323
rfingers 7.12502
rthumb 56.0496 -13.878
lclavicle -6.75868e-015 -2.46493e-014
lhumerus 67.7802 -1.02777 35.9608
lradius 65.8079
lwrist 7.00673
lhand 28.7949 33.6719
lfingers 7.12502
lthumb 52.6203 53.4018
rfemur -27.9321 -4.99719 18.0165
rtibia 43.1389
rfoot -17.7041 -14.821
rtoes -12.0875
lfemur -25.8739 0.97193 -19.3652
ltibia 39.6794
lfoot -17.2785 8.1317
ltoes -17.3478
3304
root -0.318608 17.462 -1.82857 4.22856 -1.34641 2.54755
lowerback 17.0633 0.565066 -1.23833
upperback 8.04491 0.58229 1.28678
thorax -1.00947 0.232969 1.95075
lowerneck 3.00406 -2.96955 -4.39834
upperneck 0.0439767 -4.07276 4.15327
head -0.312609 -2.06376 2.09196
rclavicle -1.59028e-015 -1.11319e-014
rhumerus 45.0505 10.7872 -56.5518
rradius 55.6677
rwrist 3.56073
rhand 32.9309 3.39553
rfingers 7.12502
rthumb 56.3209 -13.7425
lclavicle -1.59028e-015 -1.11319e-014
lhumerus 67.4457 -2.85262 35.9646
lradius 66.4852
lwrist 7.66395
lhand 29.5264 33.7811
lfingers 7.12502
lthumb 53.2807 53.0942
rfemur -28.1023 -4.84543 17.962
rtibia 43.1373
rfoot -17.7086 -14.57
rtoes -12.0991
lfemur -25.9845 1.07732 -19.4115
ltibia 39.8176
lfoot -17.4239 8.40308
ltoes -17.499
3305
root -0.304853 17.4576 -1.83717 4.30399 -1.76052 2.52173
lowerback 17.0839 0.571182 -1.47352
upperback 8.09299 0.549395 1.16572
thorax -0.967859 0.211272 1.96247
lowerneck 2.64019 -2.78169 -4.56917
upperneck 0.272341 -3.81819 4.42236
head -0.182533 -1.93513 2.19915
rclavicle -2.38542e-015 -7.15625e-015
rhumerus 44.9891 10.9784 -56.7333
rradius 55.9248
rwrist 3.45997
rhand 33.1419 3.30031
rfingers 7.12502
rthumb 56.5073 -13.6889
lclavicle -2.38542e-015 -7.15625e-015
lhumerus 67.0713 -4.31235 35.7537
lradius 67.0441
lwrist 8.5083
lhand 29.9194 33.6559
lfingers 7.12502
lthumb 53.6345 52.7381
rfemur -28.2904 -4.65971 17.9427
rtibia 43.0927
rfoot -17.6007 -14.383
rtoes -12.3936
lfemur -26.0888 1.21138 -19.4223
ltibia 39.8947
lfoot -17.5482 8.61038
ltoes -17.3093
3306
root -0.28792 17.4585 -1.84134 4.36185 -2.23162 2.41838
lowerback 17.008 0.541669 -1.66298
upperback 8.23901 0.478503 1.07278
thorax -0.769749 0.16848 1.98496
lowerneck 1.92172 -2.58863 -4.59948
upperneck 0.784199 -3.5462 4.4713
head 0.0886169 -1.79243 2.20155
rclavicle 1.19271e-015 -1.03368e-014
rhumerus 45.0961 11.2406 -56.9513
rradius 56.2275
rwrist 3.32466
rhand 33.2641 3.27383
rfingers 7.12502
rthumb 56.6151 -13.6284
lclavicle 1.19271e-015 -1.03368e-014
lhumerus 66.515 -5.63336 35.7101
lradius 67.676
lwrist 9.06644
lhand 30.5468 33.5882
lfingers 7.12502
lthumb 54.1979 52.2915
rfemur -28.397 -4.44451 18.0097
rtibia 42.9841
rfoot -17.4563 -14.1865
rtoes -12.6663
lfemur -26.101 1.34015 -19.3502
ltibia 39.9257
lfoot -17.7535 8.75956
ltoes -16.262
3307
root -0.270035 17.4626 -1.84436 4.41312 -2.71978 2.37352
lowerback 16.8581 0.54005 -1.87772
upperback 8.37301 0.440966 0.915918
thorax -0.547017 0.142339 1.94859
lowerneck 1.59658 -2.40316 -4.37275
upperneck 0.963304 -3.28733 4.45647
head 0.183258 -1.65909 2.14917
rclavicle -9.93923e-016 9.93923e-015
rhumerus 45.0979 11.4714 -57.2328
rradius 56.5264
rwrist 3.21882
rhand 33.4711 3.24036
rfingers 7.12502
rthumb 56.7976 -13.513
lclavicle -9.93923e-016 9.93923e-015
lhumerus 65.8814 -7.03887 35.8998
lradius 68.4734
lwrist 9.27071
lhand 31.9086 33.8909
lfingers 7.12502
lthumb 55.4142 51.7257
rfemur -28.4642 -4.21874 18.0072
rtibia 42.8386
rfoot -17.2746 -14.0056
rtoes -12.9465
lfemur -26.0478 1.48462 -19.3601
ltibia 39.8849
lfoot -17.9313 8.96714
ltoes -15.7522
3308
root -0.253685 17.4714 -1.848 4.4472 -3.14822 2.30555
lowerback 16.7447 0.525059 -2.05931
upperback 8.477 0.392602 0.798108
thorax -0.374584 0.11147 1.93605
lowerneck 1.45749 -2.21739 -4.47805
upperneck 0.987458 -3.0384 4.69228
head 0.208534 -1.5338 2.2441
rclavicle 9.93923e-016 -1.07344e-014
rhumerus 45.0641 11.7496 -57.4357
rradius 56.8024
rwrist 3.13422
rhand 33.6446 3.31119
rfingers 7.12502
rthumb 56.9503 -13.3161
lclavicle 9.93923e-016 -1.07344e-014
lhumerus 65.1923 -8.44799 35.9286
lradius 69.3051
lwrist 9.51805
lhand 32.9124 34.2877
lfingers 7.12502
lthumb 56.3045 51.4388
rfemur -28.4745 -3.93458 18.025
rtibia 42.6621
rfoot -17.2018 -13.8703
rtoes -12.7316
lfemur -25.9588 1.61156 -19.336
ltibia 39.7798
lfoot -18.043 9.17368
ltoes -15.3063
3309
root -0.237862 17.48 -1.85289 4.51276 -3.52607 2.27776
lowerback 16.6984 0.525075 -2.22779
upperback 8.5107 0.365172 0.681512
thorax -0.312814 0.0933376 1.91349
lowerneck 1.20922 -2.07192 -4.58348
upperneck 1.20222 -2.84414 4.91485
head 0.314078 -1.43408 2.3328
rclavicle 4.57205e-015 -6.75868e-015
rhumerus 44.9148 12.0094 -57.6197
rradius 57.0834
rwrist 3.04235
rhand 33.662 3.42521
rfingers 7.12502
rthumb 56.9656 -13.1894
lclavicle 4.57205e-015 -6.75868e-015
lhumerus 64.4962 -9.92594 35.6566
lradius 70.215
lwrist 10.0811
lhand 33.1431 34.6094
lfingers 7.12502
lthumb 56.5084 51.5977
rfemur -28.5229 -3.684 18.0096
rtibia 42.4799
rfoot -17.0985 -13.7802
rtoes -12.7804
lfemur -25.8832 1.71745 -19.3637
ltibia 39.6075
lfoot -18.0114 9.48115
ltoes -15.7296
3310
root -0.221981 17.4916 -1.85862 4.60764 -3.87706 2.31397
lowerback 16.6105 0.523146 -2.43779
upperback 8.57347 0.331045 0.560793
thorax -0.197836 0.0696802 1.91121
lowerneck 0.830461 -1.85537 -4.38332
upperneck 1.48905 -2.54767 4.85579
head 0.44991 -1.28035 2.27236
rclavicle 1.19271e-015 6.36111e-015
rhumerus 44.8805 12.2445 -57.7724
rradius 57.3217
rwrist 2.88109
rhand 33.692 3.57713
rfingers 7.12502
rthumb 56.992 -13.0155
lclavicle 1.19271e-015 6.36111e-015
lhumerus 63.7876 -11.3097 35.3139
lradius 71.1595
lwrist 10.7234
lhand 33.2237 35.0301
lfingers 7.12502
lthumb 56.5795 51.9611
rfemur -28.5827 -3.48235 17.9376
rtibia 42.2668
rfoot -16.9739 -13.6542
rtoes -12.6917
lfemur -25.8313 1.82891 -19.467
ltibia 39.3947
lfoot -17.9232 9.78945
ltoes -16.3846
